<?xml version="1.0" encoding="UTF-8"?>
<svg width="201px" height="28px" viewBox="0 0 201 28" version="1.1" xmlns="http://www.w3.org/2000/svg" xmlns:xlink="http://www.w3.org/1999/xlink">
    <!-- Generator: Sketch 52.2 (67145) - http://www.bohemiancoding.com/sketch -->
    <title>logo</title>
    <desc>Created with Sketch.</desc>
    <g id="Symbols" stroke="none" stroke-width="1" fill="none" fill-rule="evenodd">
        <g id="Header/header-ipad-portrait" transform="translate(-25.000000, -21.000000)">
            <g id="Group-2">
                <g id="logo" transform="translate(25.000000, 21.000000)">
                    <g id="Group" transform="translate(173.000000, 0.000000)" fill-rule="nonzero">
                        <polygon id="Shape" fill="#009F8E" points="18.2608696 11.4638505 18.2608696 28 9.73913043 16.5399404 9.73913043 0"></polygon>
                        <polygon id="Shape" fill="#96D4C8" points="28 24.3478261 18.2648758 11.5767022 18.2608696 0 28 3.92780968"></polygon>
                        <polygon id="Shape" fill="#60B9A5" points="28 24.2774954 18.2608696 28 18.2608696 12.173913"></polygon>
                        <polygon id="Shape" fill="#002651" points="9.73913043 28 0 24.0721903 0 3.65217391 9.73913043 16.4271261"></polygon>
                        <polygon id="Shape" fill="#006A72" points="9.73913043 15.826087 0 3.72165144 9.73913043 0"></polygon>
                    </g>
                    <g id="Group-2" transform="translate(0.000000, 3.000000)">
                        <path d="M66.4081303,5.38983051 C64.6182951,5.43963645 62.887367,6.09853515 61.4569829,7.27454453 L61.329282,7.38212863 L62.4238614,9.4262265 L62.5843997,9.29871942 C63.6906812,8.39696183 65.0214126,7.88289596 66.4008331,7.82441881 C68.7979619,7.82441881 70.049431,9.01979768 70.049431,11.4623552 L70.049431,11.6336928 C69.0287188,11.0443663 67.8910806,10.7378704 66.7365041,10.7411433 C62.5296707,10.7411433 60.4207811,13.4068381 60.4207811,16.0087795 C60.4207811,18.6107208 62.5843997,21.559322 66.7912331,21.559322 C68.706028,21.5283755 70.6003072,21.1235374 72.3845336,20.3639432 L72.5049374,20.316128 L72.5049374,11.4583706 C72.5049374,7.55346626 70.3011842,5.38983051 66.4081303,5.38983051 Z M70.0567282,18.5031367 C68.9620953,18.9623893 67.7996762,19.198726 66.6270462,19.2004411 C64.1022164,19.2004411 62.8215585,17.4591725 62.8215585,16.0127641 C62.8233954,15.3944179 63.0505118,14.8022966 63.452766,14.3671258 C64.1824856,13.5702066 65.2770649,13.0880704 66.7365041,13.0880704 C67.8826247,13.0408807 69.0185752,13.3386151 70.0202422,13.9487432 L70.0567282,18.5031367 Z" id="Shape" fill="#000000" fill-rule="nonzero"></path>
                        <path d="M119.820047,13.9063699 C119.375769,14.3501587 119.121746,14.9614963 119.115254,15.6025404 C119.115254,17.0703803 120.493516,18.8644068 123.203054,18.8644068 C124.461454,18.8624679 125.70888,18.6206369 126.88364,18.1508735 L126.88364,13.4619406 C125.808695,12.8376124 124.589642,12.5329487 123.359675,12.5812367 C121.789552,12.5934687 120.59532,13.0827486 119.820047,13.9063699 Z" id="Shape"></path>
                        <path d="M122.527709,5.38983051 C120.736389,5.44071405 119.004377,6.10004571 117.573572,7.27574069 L117.445794,7.37918724 L118.541034,9.42026725 L118.70167,9.29294842 C119.81119,8.39265132 121.145377,7.88069089 122.527709,7.82480315 C124.926286,7.82480315 126.17851,9.01841719 126.17851,11.4573685 L126.17851,11.6284532 C125.151293,11.0385143 124.006429,10.7337653 122.845329,10.7412001 C118.635955,10.7412001 116.525792,13.4029594 116.525792,16.0010593 C116.525792,18.5991592 118.690717,21.559322 122.892789,21.559322 C124.808741,21.5284212 126.704164,21.1241808 128.489467,20.365708 L128.609944,20.3179634 L128.609944,11.4533898 C128.613595,7.55822935 126.412162,5.38983051 122.527709,5.38983051 Z M126.17851,18.4877552 C125.083171,18.9461563 123.92008,19.1821381 122.746757,19.1840301 C120.220403,19.1840301 118.935321,17.4453323 118.935321,16.0010593 C118.941374,15.3755203 119.178223,14.7789693 119.592465,14.3459145 C120.322625,13.5501718 121.417866,13.0647688 122.878186,13.0647688 C124.024999,13.0176487 125.161635,13.3149435 126.163907,13.9241709 L126.17851,18.4877552 Z" id="Shape" fill="#000000" fill-rule="nonzero"></path>
                        <path d="M47.4749216,13.4841293 C47.4429187,14.9015183 47.9414972,16.2749058 48.8621324,17.3053491 C49.754681,18.2840254 50.9796923,18.8452545 52.2651339,18.8644068 C53.2752052,18.8562858 54.2784831,18.6888578 55.241857,18.3676482 L55.241857,8.64646509 C54.2999962,8.27492148 53.3028729,8.08468256 52.2976466,8.08474578 C49.1980975,8.08474578 47.5002093,10.8665938 47.4749216,13.4841293 Z" id="Shape"></path>
                        <path d="M107.977927,9.94260241 C106.211455,9.80479783 103.578482,9.94260241 103.578482,9.94260241 L103.578482,18.4195529 C106.337897,19.1794467 108.762612,18.9668339 110.387767,17.77384 C111.562936,16.911577 112.210022,16.0256904 112.210022,14.5216518 C112.210022,12.3404021 110.395205,10.1512779 107.977927,9.94260241 Z" id="Shape"></path>
                        <path d="M118.936182,13.8826544 C118.501695,14.3388405 118.255296,14.9633413 118.2521,15.6164702 C118.2521,17.1132895 119.713021,18.8637366 122.38751,18.8637366 C123.622859,18.8779614 124.85143,18.6656459 126.020486,18.235904 L126.020486,13.4793448 C124.9593,12.8430917 123.756122,12.5324403 122.542105,12.5812532 C120.976833,12.5812532 119.701426,13.0469303 118.936182,13.8826544 Z" id="Shape"></path>
                        <path d="M107.779944,6.44964708 C108.37124,6.03124315 108.730502,5.37709905 108.755421,4.67350121 C108.785395,3.95801691 108.474614,3.26817328 107.91052,2.79806769 C107.142428,2.18763247 105.936524,1.52939207 103.578482,1.9081561 L103.578482,7.17040192 C106.009493,7.24394834 106.862075,7.07479159 107.779944,6.44964708 Z" id="Shape"></path>
                        <path d="M26.28524,8.08474576 C23.9432154,8.08474576 21.5788504,9.74196376 21.5788504,13.4436002 C21.5788504,17.1452367 24.021407,18.8644068 26.28524,18.8644068 C28.6682221,18.8644068 31.0735446,17.1917008 31.0735446,13.4436002 C31.0735446,9.69549971 28.6719455,8.08474576 26.28524,8.08474576 Z" id="Shape"></path>
                        <path d="M63.7164601,14.6515402 C63.2705391,15.0473873 63.0158601,15.5936517 63.0102432,16.1663145 C63.0102432,17.4771768 64.3285148,18.8608649 67.0435265,18.8608649 C68.3045842,18.8894703 69.5632589,18.7446773 70.7786293,18.4311933 L70.7786293,14.2655641 C69.7015861,13.7078285 68.4800166,13.4357348 67.2475447,13.4790467 C65.6781738,13.482688 64.477605,13.9160008 63.7164601,14.6515402 Z" id="Shape"></path>
                        <path d="M12.9868858,16.4624171 L4.48969978,2.23014001 C3.68966377,0.851436993 2.92981222,0 1.74619731,0 L0,0 L0,20.6610169 L2.55719271,20.6610169 L2.55719271,4.15954311 L10.9959287,18.4035372 C11.8580679,19.8798821 12.9138232,20.6610169 14.0462943,20.6610169 L15.5367723,20.6610169 L15.5367723,0 L12.9795796,0 L12.9868858,16.4624171 Z" id="Shape" fill="#000000" fill-rule="nonzero"></path>
                        <path d="M41.7345194,5.39003414 C39.0947408,5.41720671 36.2524687,7.19118717 36.2524687,11.0341645 L36.2524687,20.6610169 L38.7339342,20.6610169 L38.7339342,11.5271526 C38.7339342,9.13596663 39.8384441,7.71134775 41.7345194,7.71134775 C42.1632549,7.7113259 42.5893521,7.78205409 42.9973423,7.9209647 L43.1556554,7.97530983 L44.0208548,5.85973138 L43.8441332,5.78597727 C43.1700684,5.51809596 42.4548541,5.38386086 41.7345194,5.39003414 Z" id="Shape" fill="#000000" fill-rule="nonzero"></path>
                        <path d="M26.2998061,5.38983051 C22.0621013,5.38983051 18.9893884,8.59719868 18.9893884,13.0082822 C18.9893884,17.4193657 22.0696417,20.6610169 26.2998061,20.6610169 C30.5299705,20.6610169 33.6630066,17.4536488 33.6630066,13.0425652 C33.6630066,8.63148171 30.5714427,5.38983051 26.2998061,5.38983051 Z M26.2998061,18.3411984 C24.0037543,18.3411984 21.5342733,16.6765667 21.5342733,13.0082822 C21.5342733,9.33999772 23.9321205,7.74393209 26.2998061,7.74393209 C28.6674917,7.74393209 31.1482833,9.37428075 31.1482833,13.0159007 C31.1482833,16.6575206 28.7165043,18.3411984 26.2998061,18.3411984 Z" id="Shape" fill="#000000" fill-rule="nonzero"></path>
                        <path d="M55.3457826,5.80233533 C54.383364,5.40250207 53.3552557,5.19806918 52.3178122,5.20024237 C47.4879208,5.20024237 44.88721,9.21163877 44.88721,12.985266 C44.8296431,14.992344 45.5504764,16.9401378 46.8897573,18.3964326 C48.3156091,19.8638203 50.2524414,20.678985 52.265798,20.659075 C54.1186911,20.6887979 55.9618649,20.3771173 57.7087141,19.7386781 L57.8313191,19.6926582 L57.8313191,0 L55.3234908,0 L55.3457826,5.80233533 Z M55.3457826,17.9055543 C54.354428,18.2240204 53.3226205,18.388172 52.2843745,18.3925976 C50.9623633,18.3733763 49.7025016,17.8101253 48.7845609,16.8279229 C47.8377344,15.7937671 47.3249718,14.4154315 47.3578853,12.9929359 C47.3838924,10.3659699 49.1300839,7.57793431 52.3178122,7.57793431 C53.3516363,7.57787086 54.3771268,7.76879518 55.3457826,8.1416774 L55.3457826,17.9055543 Z" id="Shape" fill="#000000" fill-rule="nonzero"></path>
                        <path d="M88.6400055,5.71015834 L85.5260295,5.71015834 L81.9315251,11.1023435 L79.6386097,7.56348366 C78.5905279,5.93896394 77.7051447,5.38983051 76.1349138,5.38983051 L75.0943994,5.38983051 L80.2969716,13.0510045 L75.1662895,20.3918507 L78.2537796,20.3918507 L81.9277415,14.9920387 L84.4060576,18.6758087 C85.1741779,19.9497582 86.563875,20.7076375 88.0421826,20.6587906 L88.9048637,20.6587906 L83.5698624,13.0510045 L88.6400055,5.71015834 Z" id="Shape" fill="#000000" fill-rule="nonzero"></path>
                        <path d="M137.778505,5.38983051 L137.575025,5.38983051 C134.918685,5.41699653 132.062564,7.19443069 132.062564,11.0364827 L132.062564,20.6610169 L134.55982,20.6610169 L134.55982,11.5254711 C134.55982,9.71699007 135.207257,8.45959124 136.343046,7.95507936 C136.770429,7.7893394 137.222978,7.70649403 137.678615,7.71058514 C138.132525,7.71287211 138.58281,7.79553184 139.010485,7.95507936 C140.146274,8.45959124 140.79371,9.71310921 140.79371,11.5254711 L140.79371,20.6610169 L143.283567,20.6610169 L143.283567,11.0364827 C143.283567,7.19443069 140.434845,5.42475825 137.778505,5.38983051 Z" id="Shape" fill="#000000" fill-rule="nonzero"></path>
                        <path d="M153.120047,12.2972077 L158.00546,5.24763176 L154.823183,5.24763176 L151.154295,10.7074839 L149.343024,13.2657044 L149.343024,0 L146.736183,0 L146.736183,20.3770172 L149.343024,20.3770172 L149.343024,17.2901749 L151.451668,14.2766452 L154.232299,18.6522441 C155.015732,19.9418803 156.434575,20.708938 157.943668,20.6586915 L158.820339,20.6586915 L153.120047,12.2972077 Z" id="Shape" fill="#000000" fill-rule="nonzero"></path>
                        <path d="M109.965245,8.42866783 C111.63111,6.38434616 111.371326,3.3708142 109.380675,1.64758598 C107.238534,-0.168983177 104.54259,-0.483389376 100.98902,0.704367377 L100.98902,20.449853 C102.809923,21.1624194 104.743375,21.5371831 106.696268,21.5560971 C108.545294,21.6057989 110.364682,21.0799864 111.907401,20.0500525 C113.74572,18.7652568 114.799484,17.1505287 114.799484,14.9069882 C114.779759,11.9079097 112.815752,9.27596279 109.965245,8.42866783 Z M103.538822,2.51705497 C105.900176,2.12889917 107.119312,2.80817182 107.876946,3.45639201 C108.441832,3.95260713 108.75305,4.68076449 108.723034,5.4359866 C108.69808,6.17866207 108.338313,6.86913716 107.746187,7.31077912 C106.823181,7.97064399 105.969402,8.14919566 103.538822,8.08709073 L103.538822,2.51705497 Z M110.580582,18.1092735 C108.899943,19.2737409 106.392446,19.4949897 103.538822,18.745849 L103.538822,10.3966177 C103.538822,10.3966177 106.257841,10.2646448 108.088468,10.3966177 C110.592119,10.5829325 112.468896,12.7604866 112.468896,14.899225 C112.46505,16.3858618 111.795872,17.2592123 110.580582,18.1092735 Z" id="Shape" fill="#000000" fill-rule="nonzero"></path>
                        <path d="M63.7153917,13.9095827 C63.270518,14.3528154 63.0162958,14.9639276 63.0102432,15.6046541 C63.0102432,17.0715428 64.3892003,18.8644068 67.0961871,18.8644068 C68.3552374,18.862653 69.6033243,18.6209725 70.7786293,18.1513359 L70.7786293,13.4613667 C69.7031416,12.8374431 68.483474,12.5329767 67.2528868,12.5812335 C65.693725,12.5975322 64.49889,13.0864951 63.7153917,13.9095827 Z" id="Shape"></path>
                        <path d="M63.7059196,13.8835157 C63.2677531,14.3366375 63.0170856,14.9602823 63.0102432,15.614314 C63.0102432,17.1121201 64.4711636,18.8637213 67.1456527,18.8637213 C68.3810129,18.878118 69.6096099,18.6656581 70.7786293,18.2354748 L70.7786293,13.4799402 C69.7174429,12.8432676 68.5142649,12.5324114 67.3002475,12.5812565 C65.7465702,12.5812565 64.4711636,13.0472406 63.7059196,13.8835157 Z" id="Shape"></path>
                    </g>
                </g>
            </g>
        </g>
    </g>
</svg>