<?xml version="1.0" encoding="UTF-8"?>
<svg width="38.587mm" height="38.587mm" version="1.1" viewBox="0 0 145.84 145.84" xml:space="preserve" xmlns="http://www.w3.org/2000/svg" xmlns:cc="http://creativecommons.org/ns#" xmlns:dc="http://purl.org/dc/elements/1.1/" xmlns:rdf="http://www.w3.org/1999/02/22-rdf-syntax-ns#"><metadata><rdf:RDF><cc:Work rdf:about=""><dc:format>image/svg+xml</dc:format><dc:type rdf:resource="http://purl.org/dc/dcmitype/StillImage"/><dc:title/></cc:Work></rdf:RDF></metadata><g transform="matrix(1.3333 0 0 -1.3333 -783.98 865.84)"><g transform="translate(697.36 594.69)"><path d="m0 0c0-30.205-24.485-54.69-54.69-54.69s-54.69 24.485-54.69 54.69 24.485 54.69 54.69 54.69 54.69-24.485 54.69-54.69" fill="#ed1e4b"/></g><g transform="translate(642.67 618.19)"><path d="m0 0c7.653 0 8.559-0.029 11.582-0.167 2.793-0.127 4.311-0.595 5.321-0.987 1.338-0.52 2.293-1.141 3.296-2.144s1.624-1.958 2.144-3.295c0.392-1.01 0.859-2.528 0.987-5.322 0.137-3.023 0.167-3.929 0.167-11.582 0-7.652-0.03-8.559-0.167-11.581-0.128-2.795-0.595-4.312-0.987-5.322-0.52-1.338-1.141-2.292-2.144-3.295s-1.958-1.624-3.296-2.144c-1.01-0.393-2.528-0.86-5.321-0.987-3.022-0.138-3.929-0.167-11.582-0.167s-8.56 0.029-11.582 0.167c-2.794 0.127-4.312 0.594-5.321 0.987-1.338 0.52-2.293 1.141-3.296 2.144s-1.624 1.957-2.144 3.295c-0.392 1.01-0.859 2.527-0.987 5.322-0.137 3.022-0.167 3.929-0.167 11.581 0 7.653 0.03 8.559 0.167 11.582 0.128 2.794 0.595 4.312 0.987 5.322 0.52 1.337 1.141 2.292 2.144 3.295s1.958 1.624 3.296 2.144c1.009 0.392 2.527 0.86 5.321 0.987 3.023 0.138 3.929 0.167 11.582 0.167m0 5.164c-7.784 0-8.76-0.033-11.817-0.172-3.05-0.139-5.134-0.624-6.957-1.333-1.885-0.732-3.483-1.712-5.077-3.305-1.593-1.594-2.573-3.192-3.305-5.077-0.709-1.823-1.193-3.906-1.332-6.957-0.14-3.057-0.173-4.033-0.173-11.817 0-7.783 0.033-8.759 0.173-11.816 0.139-3.051 0.623-5.134 1.332-6.958 0.732-1.884 1.712-3.482 3.305-5.076 1.594-1.593 3.192-2.573 5.077-3.306 1.823-0.708 3.907-1.193 6.957-1.332 3.057-0.139 4.033-0.172 11.817-0.172s8.76 0.033 11.817 0.172c3.05 0.139 5.134 0.624 6.957 1.332 1.885 0.733 3.483 1.713 5.076 3.306 1.593 1.594 2.573 3.192 3.306 5.076 0.708 1.824 1.193 3.907 1.332 6.958 0.139 3.057 0.173 4.033 0.173 11.816 0 7.784-0.034 8.76-0.173 11.817-0.139 3.051-0.624 5.134-1.332 6.957-0.733 1.885-1.713 3.483-3.306 5.077-1.593 1.593-3.191 2.573-5.076 3.305-1.823 0.709-3.907 1.194-6.957 1.333-3.057 0.139-4.033 0.172-11.817 0.172" fill="#fff"/></g><g transform="translate(642.67 609.41)"><path d="m0 0c-8.128 0-14.718-6.589-14.718-14.718 0-8.128 6.59-14.718 14.718-14.718s14.718 6.59 14.718 14.718c0 8.129-6.59 14.718-14.718 14.718m0-24.271c-5.276 0-9.554 4.277-9.554 9.553 0 5.277 4.278 9.554 9.554 9.554s9.554-4.277 9.554-9.554c0-5.276-4.278-9.553-9.554-9.553" fill="#fff"/></g><g transform="translate(661.41 609.99)"><path d="m0 0c0-1.9-1.54-3.439-3.439-3.439s-3.439 1.539-3.439 3.439c0 1.899 1.54 3.439 3.439 3.439s3.439-1.54 3.439-3.439" fill="#fff"/></g></g></svg>
