<?xml version="1.0" encoding="UTF-8"?>
<svg width="145.84" height="145.84" version="1.1" viewBox="0 0 145.84 145.84" xml:space="preserve" xmlns="http://www.w3.org/2000/svg" xmlns:cc="http://creativecommons.org/ns#" xmlns:dc="http://purl.org/dc/elements/1.1/" xmlns:rdf="http://www.w3.org/1999/02/22-rdf-syntax-ns#"><metadata><rdf:RDF><cc:Work rdf:about=""><dc:format>image/svg+xml</dc:format><dc:type rdf:resource="http://purl.org/dc/dcmitype/StillImage"/><dc:title/></cc:Work></rdf:RDF></metadata><g transform="matrix(1.3333 0 0 -1.3333 -1514.8 865.84)"><g transform="translate(1062.8 594.69)"><path d="m0 0c0-30.205-24.485-54.69-54.689-54.69-30.206 0-54.691 24.485-54.691 54.69s24.485 54.69 54.691 54.69c30.204 0 54.689-24.485 54.689-54.69" fill="#ed1e4b"/></g><g transform="translate(987.29 607.48)"><path d="m0 0c0.067 0.664-0.191 1.328-0.687 1.778l-5.076 6.123v0.912h15.781l12.202-26.755 10.726 26.755h15.05v-0.912l-4.346-4.164c-0.371-0.281-0.562-0.754-0.483-1.216v-30.616c-0.079-0.462 0.112-0.934 0.483-1.216l4.245-4.165v-0.912h-21.353v0.912l4.4 4.267c0.428 0.427 0.428 0.563 0.428 1.215v24.741l-12.234-31.056h-1.656l-14.227 31.056v-20.813c-0.124-0.877 0.169-1.756 0.788-2.386l5.718-6.934v-0.911h-16.208v0.9l5.718 6.945c0.607 0.63 0.888 1.519 0.731 2.386z" fill="#fff"/></g><g transform="translate(880.06 594.69)"><path d="m0 0c0-30.205-24.485-54.69-54.69-54.69s-54.69 24.485-54.69 54.69 24.485 54.69 54.69 54.69 54.69-24.485 54.69-54.69" fill="#ed1e4b"/></g><g transform="translate(854.11 612.52)"><path d="m0 0c-2.115-0.94-4.386-1.574-6.774-1.856 2.435 1.459 4.305 3.77 5.188 6.523-2.281-1.35-4.804-2.334-7.49-2.861-2.153 2.291-5.219 3.723-8.613 3.723-6.514 0-11.792-5.279-11.792-11.794 0-0.923 0.103-1.825 0.304-2.688-9.802 0.493-18.493 5.188-24.311 12.324-1.014-1.743-1.596-3.768-1.596-5.93 0-4.093 2.083-7.702 5.245-9.819-1.932 0.063-3.75 0.591-5.341 1.476-1e-3 -0.049-1e-3 -0.101-1e-3 -0.148 0-5.716 4.064-10.483 9.461-11.567-0.988-0.268-2.031-0.413-3.107-0.413-0.762 0-1.499 0.073-2.217 0.21 1.498-4.683 5.856-8.094 11.015-8.191-4.034-3.162-9.12-5.051-14.645-5.051-0.953 0-1.893 0.056-2.815 0.166 5.219-3.343 11.418-5.296 18.08-5.296 21.693 0 33.558 17.971 33.558 33.558 0 0.51-0.014 1.021-0.036 1.528 2.306 1.662 4.304 3.737 5.887 6.106" fill="#fff"/></g><g transform="translate(697.36 594.69)"><path d="m0 0c0-30.205-24.485-54.69-54.69-54.69s-54.69 24.485-54.69 54.69 24.485 54.69 54.69 54.69 54.69-24.485 54.69-54.69" fill="#ed1e4b"/></g><g transform="translate(642.67 618.19)"><path d="m0 0c7.653 0 8.559-0.029 11.582-0.167 2.793-0.127 4.311-0.595 5.321-0.987 1.338-0.52 2.293-1.141 3.296-2.144s1.624-1.958 2.144-3.295c0.392-1.01 0.859-2.528 0.987-5.322 0.137-3.023 0.167-3.929 0.167-11.582 0-7.652-0.03-8.559-0.167-11.581-0.128-2.795-0.595-4.312-0.987-5.322-0.52-1.338-1.141-2.292-2.144-3.295s-1.958-1.624-3.296-2.144c-1.01-0.393-2.528-0.86-5.321-0.987-3.022-0.138-3.929-0.167-11.582-0.167s-8.56 0.029-11.582 0.167c-2.794 0.127-4.312 0.594-5.321 0.987-1.338 0.52-2.293 1.141-3.296 2.144s-1.624 1.957-2.144 3.295c-0.392 1.01-0.859 2.527-0.987 5.322-0.137 3.022-0.167 3.929-0.167 11.581 0 7.653 0.03 8.559 0.167 11.582 0.128 2.794 0.595 4.312 0.987 5.322 0.52 1.337 1.141 2.292 2.144 3.295s1.958 1.624 3.296 2.144c1.009 0.392 2.527 0.86 5.321 0.987 3.023 0.138 3.929 0.167 11.582 0.167m0 5.164c-7.784 0-8.76-0.033-11.817-0.172-3.05-0.139-5.134-0.624-6.957-1.333-1.885-0.732-3.483-1.712-5.077-3.305-1.593-1.594-2.573-3.192-3.305-5.077-0.709-1.823-1.193-3.906-1.332-6.957-0.14-3.057-0.173-4.033-0.173-11.817 0-7.783 0.033-8.759 0.173-11.816 0.139-3.051 0.623-5.134 1.332-6.958 0.732-1.884 1.712-3.482 3.305-5.076 1.594-1.593 3.192-2.573 5.077-3.306 1.823-0.708 3.907-1.193 6.957-1.332 3.057-0.139 4.033-0.172 11.817-0.172s8.76 0.033 11.817 0.172c3.05 0.139 5.134 0.624 6.957 1.332 1.885 0.733 3.483 1.713 5.076 3.306 1.593 1.594 2.573 3.192 3.306 5.076 0.708 1.824 1.193 3.907 1.332 6.958 0.139 3.057 0.173 4.033 0.173 11.816 0 7.784-0.034 8.76-0.173 11.817-0.139 3.051-0.624 5.134-1.332 6.957-0.733 1.885-1.713 3.483-3.306 5.077-1.593 1.593-3.191 2.573-5.076 3.305-1.823 0.709-3.907 1.194-6.957 1.333-3.057 0.139-4.033 0.172-11.817 0.172" fill="#fff"/></g><g transform="translate(642.67 609.41)"><path d="m0 0c-8.128 0-14.718-6.589-14.718-14.718 0-8.128 6.59-14.718 14.718-14.718s14.718 6.59 14.718 14.718c0 8.129-6.59 14.718-14.718 14.718m0-24.271c-5.276 0-9.554 4.277-9.554 9.553 0 5.277 4.278 9.554 9.554 9.554s9.554-4.277 9.554-9.554c0-5.276-4.278-9.553-9.554-9.553" fill="#fff"/></g><g transform="translate(661.41 609.99)"><path d="m0 0c0-1.9-1.54-3.439-3.439-3.439s-3.439 1.539-3.439 3.439c0 1.899 1.54 3.439 3.439 3.439s3.439-1.54 3.439-3.439" fill="#fff"/></g><g transform="translate(1245.5 594.69)"><path d="m0 0c0-30.205-24.485-54.69-54.689-54.69-30.206 0-54.691 24.485-54.691 54.69s24.485 54.69 54.691 54.69c30.204 0 54.689-24.485 54.689-54.69" fill="#ed1e4b"/></g><g transform="translate(1193 573.94)"><path d="m0 0v16.952c0 0.907 0.065 1.814 0.332 2.461 0.73 1.814 2.39 3.691 5.177 3.691 3.651 0 5.941-2.073 5.941-6.152v-16.952h9.258v17.405c0 9.324-4.978 13.662-11.616 13.662-5.444 0-7.833-3.043-9.159-5.114l0.066 3.979h-9.242c0.133-2.848 0-29.932 0-29.932zm-15.003 40.299c-0.055 2.662-1.829 4.689-4.712 4.689-2.884 0-4.767-2.027-4.767-4.689 0-2.605 1.829-4.691 4.657-4.691h0.054c2.939 0 4.768 2.086 4.768 4.691m0-10.547h-9.196v-29.752h9.196z" fill="#fff" fill-rule="evenodd"/></g></g></svg>
